<?xml version="1.0" encoding="UTF-8"?>
<svg id="Layer_1" data-name="Layer 1" xmlns="http://www.w3.org/2000/svg" viewBox="0 0 1167.74 302.33">
  <g>
    <path d="M197.42,187.37c0,11.69-3.01,22.19-9.03,31.51-6.02,9.32-14.83,16.61-26.43,21.88s-25.36,7.91-41.26,7.91c-19.07,0-34.8-3.6-47.2-10.81-8.79-5.18-15.93-12.11-21.42-20.76-5.49-8.66-8.24-17.07-8.24-25.25,0-4.75,1.65-8.81,4.94-12.2,3.3-3.38,7.49-5.08,12.59-5.08,4.13,0,7.62,1.32,10.48,3.96,2.85,2.64,5.29,6.55,7.32,11.73,2.46,6.15,5.12,11.29,7.98,15.42,2.85,4.13,6.88,7.54,12.06,10.22,5.19,2.68,12,4.02,20.43,4.02,11.6,0,21.03-2.7,28.28-8.11,7.25-5.4,10.88-12.15,10.88-20.24,0-6.42-1.96-11.62-5.87-15.62-3.91-4-8.96-7.05-15.16-9.16s-14.48-4.35-24.85-6.72c-13.89-3.25-25.51-7.05-34.87-11.4-9.36-4.35-16.79-10.28-22.28-17.8-5.49-7.51-8.24-16.85-8.24-28.01s2.9-20.08,8.7-28.34c5.8-8.26,14.19-14.61,25.18-19.05,10.99-4.44,23.91-6.66,38.76-6.66,11.87,0,22.13,1.47,30.78,4.42,8.66,2.95,15.84,6.86,21.56,11.73,5.71,4.88,9.89,10,12.52,15.36,2.64,5.36,3.96,10.59,3.96,15.69,0,4.66-1.65,8.86-4.94,12.59-3.3,3.74-7.41,5.6-12.33,5.6-4.48,0-7.89-1.12-10.22-3.36-2.33-2.24-4.86-5.91-7.58-11.01-3.52-7.29-7.73-12.99-12.66-17.07-4.92-4.09-12.83-6.13-23.73-6.13-10.11,0-18.26,2.22-24.46,6.66-6.2,4.44-9.29,9.78-9.29,16.02,0,3.87,1.05,7.21,3.16,10.02,2.11,2.81,5.01,5.23,8.7,7.25,3.69,2.02,7.43,3.6,11.21,4.75,3.78,1.14,10.02,2.81,18.72,5.01,10.9,2.55,20.76,5.36,29.6,8.44,8.83,3.08,16.35,6.81,22.54,11.21,6.2,4.4,11.03,9.95,14.5,16.68,3.47,6.72,5.21,14.96,5.21,24.72Z" style="fill: #f4866b; opacity: .9; stroke-width: 0px;"/>
    <path d="M270.07,72.54v67.76l76.86-80.16c3.69-3.87,6.83-6.72,9.43-8.57,2.59-1.85,6.04-2.77,10.35-2.77,5.62,0,10.17,1.65,13.64,4.94,3.47,3.29,5.21,7.32,5.21,12.06,0,5.71-2.95,11.38-8.83,17.01l-47.59,45.09,54.84,78.57c3.87,5.45,6.77,10.22,8.7,14.3,1.93,4.09,2.9,8.07,2.9,11.93,0,4.31-1.69,8.04-5.08,11.21-3.38,3.16-7.98,4.75-13.78,4.75-5.45,0-9.89-1.17-13.32-3.49-3.43-2.33-6.33-5.43-8.7-9.29-2.37-3.87-4.48-7.38-6.33-10.55l-46.27-71.19-32.04,30.72v39.95c0,8.09-1.85,14.09-5.54,18-3.69,3.91-8.44,5.87-14.24,5.87-3.34,0-6.55-.88-9.62-2.64-3.08-1.76-5.45-4.13-7.12-7.12-1.23-2.46-1.98-5.32-2.24-8.57-.26-3.25-.4-7.95-.4-14.11V72.54c0-7.91,1.73-13.84,5.21-17.8,3.47-3.96,8.2-5.93,14.17-5.93s10.66,1.96,14.3,5.87c3.65,3.91,5.47,9.87,5.47,17.86Z" style="fill: #f4866b; opacity: .9; stroke-width: 0px;"/>
    <path d="M432.09,224.81V72.54c0-7.91,1.8-13.84,5.41-17.8,3.6-3.96,8.26-5.93,13.97-5.93s10.66,1.96,14.3,5.87c3.65,3.91,5.47,9.87,5.47,17.86v152.27c0,8-1.83,13.97-5.47,17.93-3.65,3.96-8.42,5.93-14.3,5.93s-10.26-2-13.91-6c-3.65-4-5.47-9.95-5.47-17.86Z" style="fill: #f4866b; opacity: .9; stroke-width: 0px;"/>
    <path d="M590.03,170.1h-35.86v54.71c0,7.82-1.85,13.76-5.54,17.8s-8.35,6.06-13.97,6.06-10.64-2-14.24-6c-3.6-4-5.41-9.86-5.41-17.6V76.1c0-8.61,1.98-14.77,5.93-18.46s10.24-5.54,18.85-5.54h50.23c14.85,0,26.28,1.14,34.28,3.43,7.91,2.2,14.74,5.85,20.5,10.94,5.75,5.1,10.13,11.34,13.12,18.72,2.99,7.38,4.48,15.69,4.48,24.92,0,19.69-6.06,34.61-18.19,44.76-12.13,10.15-30.19,15.23-54.18,15.23ZM580.54,81.5h-26.37v59.06h26.37c9.23,0,16.94-.97,23.14-2.9,6.2-1.93,10.92-5.1,14.17-9.49,3.25-4.39,4.88-10.15,4.88-17.27,0-8.52-2.5-15.47-7.51-20.83-5.63-5.71-17.18-8.57-34.67-8.57Z" style="fill: #f4866b; opacity: .9; stroke-width: 0px;"/>
    <path d="M738.21,224.81v-61.3l-47.2-73.17c-4.13-6.59-7.05-11.73-8.77-15.42-1.71-3.69-2.57-6.9-2.57-9.62,0-4.48,1.73-8.35,5.21-11.6,3.47-3.25,7.75-4.88,12.85-4.88,5.36,0,9.43,1.52,12.2,4.55,2.77,3.03,6.92,9.08,12.46,18.13l36.12,58.67,36.52-58.67c2.2-3.6,4.04-6.63,5.54-9.1,1.49-2.46,3.14-4.77,4.94-6.92,1.8-2.15,3.8-3.8,6-4.94,2.2-1.14,4.88-1.71,8.04-1.71,4.92,0,9.03,1.6,12.33,4.81,3.3,3.21,4.94,6.92,4.94,11.14,0,3.43-.84,6.86-2.5,10.28-1.67,3.43-4.53,8.17-8.57,14.24l-48.38,74.22v61.3c0,8-1.85,13.97-5.54,17.93s-8.39,5.93-14.11,5.93-10.5-1.96-14.11-5.87c-3.6-3.91-5.41-9.91-5.41-18Z" style="fill: #f4866b; opacity: .9; stroke-width: 0px;"/>
  </g>
  <g>
    <path d="M938.93,5.61h166.48c34.33,0,62.2,27.87,62.2,62.2v158.58c0,34.33-27.87,62.2-62.2,62.2h-166.48c-34.33,0-62.2-27.87-62.2-62.2V67.81c0-34.33,27.87-62.2,62.2-62.2Z" style="fill: #fff; stroke-width: 0px;"/>
    <path d="M1105.41,5.73c34.23,0,62.07,27.85,62.07,62.07v158.58c0,34.23-27.85,62.07-62.07,62.07h-166.48c-34.23,0-62.07-27.85-62.07-62.07V67.81c0-34.23,27.85-62.07,62.07-62.07h166.48M1105.41,5.48h-166.48c-34.42,0-62.32,27.9-62.32,62.32v158.58c0,34.42,27.9,62.32,62.32,62.32h166.48c34.42,0,62.32-27.9,62.32-62.32V67.81c0-34.42-27.9-62.32-62.32-62.32h0Z" style="stroke-width: 0px;"/>
  </g>
  <g>
    <path d="M1121.72,159.73l-13.59,9.06-82.18,54.8c-10.84,7.23-25.81-.09-25.81-12.63v-127.73c0-12.54,14.97-19.85,25.81-12.63l82.18,54.8,13.59,9.06c9.24,6.15,9.24,19.1,0,25.26Z" style="fill: #f4866b; fill-rule: evenodd; opacity: .9; stroke-width: 0px;"/>
    <path d="M1130.4,80.98v132.25c0,7.3-5.92,13.22-13.22,13.22h0c-7.31,0-13.23-5.92-13.23-13.23V80.98c0-7.31,5.92-13.23,13.23-13.23h0c7.31,0,13.23,5.92,13.23,13.23Z" style="fill-rule: evenodd; opacity: .9; stroke-width: 0px;"/>
    <path d="M1035.52,159.73l-41.41,27.62-54.36,36.25c-10.84,7.23-25.8-.09-25.8-12.63v-127.73c0-12.54,14.96-19.85,25.8-12.63l54.36,36.25,41.41,27.62c9.24,6.15,9.24,19.1,0,25.26Z" style="fill: #e8514a; fill-rule: evenodd; opacity: .9; stroke-width: 0px;"/>
  </g>
</svg>